<svg xmlns="http://www.w3.org/2000/svg" height="48" viewBox="0 -960 960 960" width="48"><path d="m617-284 60-58-155-155.675V-689h-79v223.557L617-284ZM480.413-59q-86.053 0-163.768-32.886-77.716-32.886-134.772-89.906-57.057-57.019-89.965-134.684Q59-394.141 59-480.166q0-86.281 33.162-163.058 33.163-76.778 90.175-133.667 57.011-56.889 134.481-90.999Q394.288-902 480.276-902q86.349 0 163.07 34.093 76.72 34.093 133.594 90.967 56.874 56.874 90.967 133.621Q902-566.572 902-480.192q0 86.38-34.11 163.612t-90.999 134.243q-56.889 57.012-133.529 90.174Q566.723-59 480.413-59Z"/></svg>